<svg xmlns="http://www.w3.org/2000/svg" viewBox="0 0 800 450" fill="none">
  <rect width="800" height="450" rx="12" fill="#1e293b"/>
  <rect x="40" y="40" width="720" height="370" rx="8" fill="#0f172a"/>
  <rect x="40" y="40" width="720" height="36" rx="8" fill="#334155"/>
  <circle cx="68" cy="58" r="8" fill="#ef4444"/>
  <circle cx="92" cy="58" r="8" fill="#eab308"/>
  <circle cx="116" cy="58" r="8" fill="#22c55e"/>
  <rect x="200" y="52" width="400" height="12" rx="6" fill="#475569"/>
  <rect x="80" y="100" width="300" height="24" rx="4" fill="#3b82f6"/>
  <rect x="80" y="140" width="640" height="8" rx="4" fill="#475569"/>
  <rect x="80" y="160" width="560" height="8" rx="4" fill="#475569"/>
  <rect x="80" y="180" width="480" height="8" rx="4" fill="#475569"/>
  <rect x="80" y="220" width="640" height="120" rx="8" fill="#1e3a5f" stroke="#3b82f6" stroke-width="2"/>
  <rect x="100" y="240" width="120" height="80" rx="4" fill="#2563eb"/>
  <rect x="240" y="240" width="120" height="80" rx="4" fill="#1d4ed8"/>
  <rect x="380" y="240" width="120" height="80" rx="4" fill="#1e40af"/>
  <text x="400" y="400" text-anchor="middle" fill="#94a3b8" font-family="system-ui,sans-serif" font-size="18" font-weight="600">Multistep Form</text>
</svg>
